<svg width="64" height="64" viewBox="0 0 64 64" fill="none" xmlns="http://www.w3.org/2000/svg">
<rect width="64" height="64" rx="7.29114" fill="#176FC1"/>
<path d="M32.1166 9.00008C40.6944 9.02781 50.0364 16.1766 49.9994 27.3692C49.9803 33.1576 48.3311 36.687 43.4682 42.9591C40.0907 47.3151 32.1166 55.0001 32.1166 55.0001C32.1166 55.0001 23.1707 47.6113 19.8314 42.9591C15.3998 36.7849 14.035 32.9124 14.0004 27.3692C13.9307 16.2096 23.4845 8.97233 32.1166 9.00008ZM32.0014 17.088C30.6708 17.088 29.3527 17.3481 28.1234 17.8536C26.8942 18.3591 25.7771 19.1004 24.8363 20.0343C23.8956 20.9682 23.1492 22.0768 22.64 23.297C22.1309 24.5171 21.8686 25.8249 21.8685 27.1456C21.8685 28.4664 22.1308 29.7749 22.64 30.9952C23.1492 32.2154 23.8956 33.324 24.8363 34.2579C25.7771 35.1918 26.8942 35.9331 28.1234 36.4386C29.3527 36.944 30.6708 37.2042 32.0014 37.2042C33.332 37.2042 34.6499 36.944 35.8793 36.4386C37.1085 35.9331 38.2256 35.1918 39.1664 34.2579C40.1072 33.324 40.8535 32.2154 41.3627 30.9952C41.8719 29.7749 42.1342 28.4664 42.1342 27.1456C42.1341 25.8249 41.8718 24.5171 41.3627 23.297C40.8535 22.0768 40.1072 20.9682 39.1664 20.0343C38.2256 19.1003 37.1085 18.3591 35.8793 17.8536C34.6499 17.3481 33.332 17.088 32.0014 17.088Z" fill="white"/>
</svg>
