<svg width="316" height="316" viewBox="0 0 316 316" fill="none" xmlns="http://www.w3.org/2000/svg">
<rect width="316" height="316" rx="36" fill="#176FC1"/>
<path d="M41 154.329L93.3059 185.589V202.106L41 170.847V154.329Z" fill="#C6D5E6"/>
<path d="M98.8118 187.707L155.25 219.023V235.541L98.8118 204.225V187.707Z" fill="#C6D5E6"/>
<path d="M275 154.329L222.694 185.589V202.106L275 170.847V154.329Z" fill="white"/>
<path d="M217.188 187.707L160.75 219.023V235.541L217.188 204.225V187.707Z" fill="white"/>
<path d="M215.792 181.578L158 214.894L101.379 182.254L159.151 147.723L215.792 181.578Z" fill="white"/>
<path d="M153.785 144.515L95.9163 179.105L41 147.447L100.907 112.912L153.785 144.515Z" fill="white"/>
<path d="M216.5 113.724L275 147.447L221.254 178.428L164.517 144.515L216.263 113.586L216.5 113.724Z" fill="white"/>
<path d="M210.801 110.437L159.151 141.308L106.37 109.762L158 80L210.801 110.437Z" fill="white"/>
<path d="M215.792 181.578L158 214.894L101.379 182.254L159.151 147.723L215.792 181.578Z" fill="#C6D5E6"/>
<path d="M153.785 144.515L95.9163 179.105L41 147.447L100.907 112.912L153.785 144.515Z" fill="#C6D5E6"/>
</svg>
